<mxfile host="app.diagrams.net" modified="2020-04-07T10:06:45.669Z" agent="5.0 (Windows NT 10.0; Win64; x64) AppleWebKit/537.36 (KHTML, like Gecko) Chrome/80.0.3987.162 Safari/537.36" etag="TePLjVKsE-dFdHT-MHZG" version="12.9.9" type="github">
  <diagram id="qw-O47Ej1NxxmwRzBuyP" name="Page-1">
    <mxGraphModel dx="1038" dy="548" grid="1" gridSize="10" guides="1" tooltips="1" connect="1" arrows="1" fold="1" page="1" pageScale="1" pageWidth="827" pageHeight="1169" math="0" shadow="0">
      <root>
        <mxCell id="0" />
        <mxCell id="1" parent="0" />
        <mxCell id="-V5QNDyOZL2SHKii_7l9-2" value="DAG" style="html=1;verticalAlign=top;align=left;spacingTop=0;spacing=10;" parent="1" vertex="1">
          <mxGeometry x="90" y="200" width="220" height="180" as="geometry" />
        </mxCell>
        <mxCell id="-V5QNDyOZL2SHKii_7l9-3" value="Schduler" style="html=1;" parent="1" vertex="1">
          <mxGeometry x="50" y="430" width="340" height="50" as="geometry" />
        </mxCell>
        <mxCell id="-V5QNDyOZL2SHKii_7l9-4" value="Task|Operator" style="html=1;verticalAlign=top;align=left;" parent="1" vertex="1">
          <mxGeometry x="140" y="240" width="110" height="100" as="geometry" />
        </mxCell>
        <mxCell id="28s3x-XEGstzTcNTdCRP-2" value="DAG Runs" style="html=1;align=left;verticalAlign=top;" vertex="1" parent="1">
          <mxGeometry x="90" y="520" width="220" height="170" as="geometry" />
        </mxCell>
        <mxCell id="28s3x-XEGstzTcNTdCRP-3" value="Task Instance" style="html=1;align=left;" vertex="1" parent="1">
          <mxGeometry x="120" y="580" width="110" height="50" as="geometry" />
        </mxCell>
        <mxCell id="28s3x-XEGstzTcNTdCRP-9" value="Connections" style="html=1;align=center;" vertex="1" parent="1">
          <mxGeometry x="390" y="230" width="110" height="50" as="geometry" />
        </mxCell>
        <mxCell id="28s3x-XEGstzTcNTdCRP-10" value="Logs" style="html=1;align=center;" vertex="1" parent="1">
          <mxGeometry x="380" y="310" width="110" height="50" as="geometry" />
        </mxCell>
        <mxCell id="28s3x-XEGstzTcNTdCRP-11" value="Web Server" style="html=1;align=center;" vertex="1" parent="1">
          <mxGeometry x="40" y="740" width="370" height="50" as="geometry" />
        </mxCell>
      </root>
    </mxGraphModel>
  </diagram>
</mxfile>
